<?xml version="1.0" encoding="UTF-8" standalone="no"?>
<svg
   xmlns:dc="http://purl.org/dc/elements/1.1/"
   xmlns:cc="http://creativecommons.org/ns#"
   xmlns:rdf="http://www.w3.org/1999/02/22-rdf-syntax-ns#"
   xmlns:svg="http://www.w3.org/2000/svg"
   xmlns="http://www.w3.org/2000/svg"
   xmlns:sodipodi="http://sodipodi.sourceforge.net/DTD/sodipodi-0.dtd"
   xmlns:inkscape="http://www.inkscape.org/namespaces/inkscape"
   version="1.1"
   id="Layer_1"
   x="0px"
   y="0px"
   width="280"
   height="60"
   viewBox="0 0 280.00001 59.999999"
   enable-background="new 0 0 100 100"
   xml:space="preserve"
   inkscape:version="0.48.2 r9819"
   sodipodi:docname="bbox-sprites.svg"
   inkscape:export-filename="/Users/aaronr/github/Leaflet.draw/src/images/bbox-sprites.png"
   inkscape:export-xdpi="45"
   inkscape:export-ydpi="45"><metadata
   id="metadata51"><rdf:RDF><cc:Work
       rdf:about=""><dc:format>image/svg+xml</dc:format><dc:type
         rdf:resource="http://purl.org/dc/dcmitype/StillImage" /><dc:title></dc:title></cc:Work></rdf:RDF></metadata><defs
   id="defs49"><inkscape:perspective
     sodipodi:type="inkscape:persp3d"
     inkscape:vp_x="0 : 50 : 1"
     inkscape:vp_y="0 : 1000 : 0"
     inkscape:vp_z="100 : 50 : 1"
     inkscape:persp3d-origin="50 : 33.333333 : 1"
     id="perspective5373" /></defs><sodipodi:namedview
   pagecolor="#ffffff"
   bordercolor="#666666"
   borderopacity="1"
   objecttolerance="10"
   gridtolerance="10"
   guidetolerance="10"
   inkscape:pageopacity="0"
   inkscape:pageshadow="2"
   inkscape:window-width="1226"
   inkscape:window-height="844"
   id="namedview47"
   showgrid="true"
   inkscape:zoom="2.16"
   inkscape:cx="132.14033"
   inkscape:cy="5.7926224"
   inkscape:window-x="38"
   inkscape:window-y="11"
   inkscape:window-maximized="0"
   inkscape:current-layer="Layer_1"
   fit-margin-top="0"
   fit-margin-left="0"
   fit-margin-right="0"
   fit-margin-bottom="0"
   borderlayer="false"><inkscape:grid
     type="xygrid"
     id="grid6480"
     empspacing="5"
     visible="true"
     enabled="true"
     snapvisiblegridlinesonly="true" /></sodipodi:namedview>











<path
   style="fill:#464646;fill-opacity:1;stroke-width:20;stroke-miterlimit:4;stroke-dasharray:none"
   d="m 19.02918,27.70898 0,-1.42397 1.52567,0 1.52569,0 0,-4.78047 0,-4.78046 -1.6274,0 -1.62738,0 0,1.52568 0,1.52568 -1.52567,0 -1.52569,0 0,-3.05136 0,-3.05135 7.83182,0 7.83182,0 0,3.05135 0,3.05136 -1.52569,0 -1.52567,0 0,-1.52568 0,-1.52568 -1.62739,0 -1.62739,0 0,4.78046 0,4.78047 1.52568,0 1.52567,0 0,1.42397 0,1.42396 -4.57703,0 -4.57704,0 0,-1.42396 z"
   id="path3147"
   inkscape:connector-curvature="0" /><path
   style="fill:#464646;fill-opacity:1;stroke-width:20;stroke-miterlimit:4;stroke-dasharray:none"
   d="m 19.64356,39.48975 0,-5.51027 1.35498,0 1.35497,0 0,4.15529 0,4.15527 12.64649,0 12.6465,0 0,-9.8462 0,-9.84619 -5.60059,0 -5.60059,0 0,-1.26465 0,-1.26465 6.95558,0 6.95556,0 0,12.46582 0,12.46583 L 35,45 l -15.35644,0 0,-5.51025 z"
   id="path3149"
   inkscape:connector-curvature="0" /><path
   inkscape:connector-curvature="0"
   id="path6172"
   d=""
   style="fill:#bbbbbb;fill-opacity:1;stroke-width:20;stroke-miterlimit:4;stroke-dasharray:none" /><path
   inkscape:connector-curvature="0"
   id="path6178"
   d=""
   style="fill:#bbbbbb;fill-opacity:1;stroke-width:20;stroke-miterlimit:4;stroke-dasharray:none" /><path
   inkscape:connector-curvature="0"
   id="path6184"
   d=""
   style="fill:#bbbbbb;fill-opacity:1;stroke-width:20;stroke-miterlimit:4;stroke-dasharray:none" /><path
   inkscape:connector-curvature="0"
   id="path6186"
   d=""
   style="fill:#bbbbbb;fill-opacity:1;stroke-width:20;stroke-miterlimit:4;stroke-dasharray:none" /><path
   inkscape:connector-curvature="0"
   id="path6270"
   d=""
   style="fill:#bbbbbb;fill-opacity:1;stroke-width:20;stroke-miterlimit:4;stroke-dasharray:none" /><path
   inkscape:connector-curvature="0"
   id="path6288"
   d=""
   style="fill:#bbbbbb;fill-opacity:1;stroke-width:20;stroke-miterlimit:4;stroke-dasharray:none" /><path
   inkscape:connector-curvature="0"
   id="path6682"
   d=""
   style="fill:#bbbbbb;fill-opacity:1;stroke-width:20;stroke-miterlimit:4;stroke-dasharray:none" /><path
   inkscape:connector-curvature="0"
   id="path6684"
   d=""
   style="fill:#bbbbbb;fill-opacity:1;stroke-width:20;stroke-miterlimit:4;stroke-dasharray:none" /><path
   inkscape:connector-curvature="0"
   id="path6759"
   d="m 159.38563,27.70898 0,-1.42397 1.52567,0 1.52569,0 0,-4.78047 0,-4.78046 -1.6274,0 -1.62738,0 0,1.52568 0,1.52568 -1.52567,0 -1.52569,0 0,-3.05136 0,-3.05135 7.83182,0 7.83182,0 0,3.05135 0,3.05136 -1.52569,0 -1.52567,0 0,-1.52568 0,-1.52568 -1.62739,0 -1.62739,0 0,4.78046 0,4.78047 1.52568,0 1.52567,0 0,1.42397 0,1.42396 -4.57703,0 -4.57704,0 0,-1.42396 z"
   style="opacity:0.4;fill:#464646;fill-opacity:1;stroke-width:20;stroke-miterlimit:4;stroke-dasharray:none" /><path
   inkscape:connector-curvature="0"
   id="path6761"
   d="m 160.00001,39.48975 0,-5.51027 1.35498,0 1.35497,0 0,4.15529 0,4.15527 12.64649,0 12.6465,0 0,-9.8462 0,-9.84619 -5.60059,0 -5.60059,0 0,-1.26465 0,-1.26465 6.95558,0 6.95556,0 0,12.46582 0,12.46583 -15.35646,0 -15.35644,0 0,-5.51025 z"
   style="opacity:0.4;fill:#464646;fill-opacity:1;stroke-width:20;stroke-miterlimit:4;stroke-dasharray:none" /><g
   id="g3192"
   transform="matrix(0.33451766,0,0,0.33451766,148.26481,14.344203)"
   style="fill:#464646;fill-opacity:1">
	<g
   id="g3194"
   style="fill:#464646;fill-opacity:1">
		<rect
   style="fill:#464646;fill-opacity:1;fill-rule:evenodd"
   x="-114.388"
   y="10.951"
   clip-rule="evenodd"
   width="20.32"
   height="20.318001"
   id="rect3196" />
		<rect
   style="fill:#464646;fill-opacity:1;fill-rule:evenodd"
   x="-114.388"
   y="36.349998"
   clip-rule="evenodd"
   width="20.32"
   height="20.318001"
   id="rect3198" />
		<rect
   style="fill:#464646;fill-opacity:1;fill-rule:evenodd"
   x="-114.388"
   y="61.748001"
   clip-rule="evenodd"
   width="20.32"
   height="20.319"
   id="rect3200" />
		<rect
   style="fill:#464646;fill-opacity:1;fill-rule:evenodd"
   x="-139.785"
   y="10.951"
   clip-rule="evenodd"
   width="20.318001"
   height="20.318001"
   id="rect3202" />
		<rect
   style="fill:#464646;fill-opacity:1;fill-rule:evenodd"
   x="-139.785"
   y="36.349998"
   clip-rule="evenodd"
   width="20.318001"
   height="20.318001"
   id="rect3204" />
		<rect
   style="fill:#464646;fill-opacity:1;fill-rule:evenodd"
   x="-139.785"
   y="61.748001"
   clip-rule="evenodd"
   width="20.318001"
   height="20.319"
   id="rect3206" />
		<rect
   style="fill:#464646;fill-opacity:1;fill-rule:evenodd"
   x="-165.187"
   y="10.951"
   clip-rule="evenodd"
   width="20.32"
   height="20.318001"
   id="rect3208" />
		<rect
   style="fill:#464646;fill-opacity:1;fill-rule:evenodd"
   x="-165.187"
   y="36.349998"
   clip-rule="evenodd"
   width="20.32"
   height="20.318001"
   id="rect3210" />
		<rect
   style="fill:#464646;fill-opacity:1;fill-rule:evenodd"
   x="-165.187"
   y="61.748001"
   clip-rule="evenodd"
   width="20.32"
   height="20.319"
   id="rect3212" />
	</g>
	<path
   style="fill:#464646;fill-opacity:1;fill-rule:evenodd"
   inkscape:connector-curvature="0"
   clip-rule="evenodd"
   d="m -175.144,0.991 v 90.855 h 91.032 V 0.991 h -91.032 z m 84.395,84.217 h -77.757 V 7.63 h 77.757 v 77.578 z"
   id="path3214" />
</g><g
   style="fill:#464646;fill-opacity:1;opacity:0.4"
   transform="matrix(0.33451766,0,0,0.33451766,293.46058,14.539966)"
   id="g3288">
	<g
   style="fill:#464646;fill-opacity:1"
   id="g3290">
		<rect
   id="rect3292"
   height="20.318001"
   width="20.32"
   clip-rule="evenodd"
   y="10.951"
   x="-114.388"
   style="fill:#464646;fill-opacity:1;fill-rule:evenodd" />
		<rect
   id="rect3294"
   height="20.318001"
   width="20.32"
   clip-rule="evenodd"
   y="36.349998"
   x="-114.388"
   style="fill:#464646;fill-opacity:1;fill-rule:evenodd" />
		<rect
   id="rect3296"
   height="20.319"
   width="20.32"
   clip-rule="evenodd"
   y="61.748001"
   x="-114.388"
   style="fill:#464646;fill-opacity:1;fill-rule:evenodd" />
		<rect
   id="rect3298"
   height="20.318001"
   width="20.318001"
   clip-rule="evenodd"
   y="10.951"
   x="-139.785"
   style="fill:#464646;fill-opacity:1;fill-rule:evenodd" />
		<rect
   id="rect3300"
   height="20.318001"
   width="20.318001"
   clip-rule="evenodd"
   y="36.349998"
   x="-139.785"
   style="fill:#464646;fill-opacity:1;fill-rule:evenodd" />
		<rect
   id="rect3302"
   height="20.319"
   width="20.318001"
   clip-rule="evenodd"
   y="61.748001"
   x="-139.785"
   style="fill:#464646;fill-opacity:1;fill-rule:evenodd" />
		<rect
   id="rect3304"
   height="20.318001"
   width="20.32"
   clip-rule="evenodd"
   y="10.951"
   x="-165.187"
   style="fill:#464646;fill-opacity:1;fill-rule:evenodd" />
		<rect
   id="rect3306"
   height="20.318001"
   width="20.32"
   clip-rule="evenodd"
   y="36.349998"
   x="-165.187"
   style="fill:#464646;fill-opacity:1;fill-rule:evenodd" />
		<rect
   id="rect3308"
   height="20.319"
   width="20.32"
   clip-rule="evenodd"
   y="61.748001"
   x="-165.187"
   style="fill:#464646;fill-opacity:1;fill-rule:evenodd" />
	</g>
	<path
   id="path3310"
   d="m -175.144,0.991 v 90.855 h 91.032 V 0.991 h -91.032 z m 84.395,84.217 h -77.757 V 7.63 h 77.757 v 77.578 z"
   clip-rule="evenodd"
   inkscape:connector-curvature="0"
   style="fill:#464646;fill-opacity:1;fill-rule:evenodd" />
</g></svg>